# xmcd
#
# Track frame offsets:
#	150
#	29548
#	50912
#	116699
#	155346
#	190891
#
# Disc length: 2913 seconds
#
# Revision: 1
# Processed by: cddbd v1.5.2PL0 Copyright (c) Steve Scherf et al.
# Submitted via: audiograbber 1.83.01
#
DISCID=500b5f06
DTITLE=Dire Straits - Live in Munich 91
DYEAR=1991
DGENRE=Rock
TTITLE0=You and your Friend
TTITLE1=Two Young Lovers
TTITLE2=Tunnel of Love
TTITLE3=Money for Nothing
TTITLE4=Brothers in Arms
TTITLE5=Solid Rock
EXTD=
EXTT0=
EXTT1=
EXTT2=
EXTT3=
EXTT4=
EXTT5=
PLAYORDER=
